<mxfile host="app.diagrams.net" modified="2024-02-26T05:59:27.964Z" agent="Mozilla/5.0 (Windows NT 10.0; Win64; x64) AppleWebKit/537.36 (KHTML, like Gecko) Chrome/122.0.0.0 Safari/537.36" version="21.7.2" etag="bho1EII7v4wICBQ244HC" type="github">
  <diagram name="Page-1" id="MLaSWUwBH0SA9UB5dPVe">
    <mxGraphModel>
      <root>
        <mxCell id="0" />
        <mxCell id="1" parent="0" />
      </root>
    </mxGraphModel>
  </diagram>
</mxfile>
